<?xml version="1.0" encoding="utf-8"?>
<!-- Generator: Adobe Illustrator 16.0.3, SVG Export Plug-In . SVG Version: 6.00 Build 0)  -->
<!DOCTYPE svg PUBLIC "-//W3C//DTD SVG 1.1//EN" "http://www.w3.org/Graphics/SVG/1.1/DTD/svg11.dtd">
<svg version="1.1" id="Layer_1" xmlns="http://www.w3.org/2000/svg" xmlns:xlink="http://www.w3.org/1999/xlink" x="0px" y="0px"
	 width="128px" height="128px" viewBox="0 0 128 128" enable-background="new 0 0 128 128" xml:space="preserve">
<rect x="-14.797" y="-15.667" fill="#0065A8" width="157.702" height="172.667"/>
<path fill="#FFFFFF" d="M101.236,57.009c0.701-1.831,1.096-3.833,1.096-5.919c0-9.067-7.357-16.423-16.424-16.423
	c-3.37,0-6.518,1.026-9.117,2.771c-4.74-8.211-13.584-13.72-23.729-13.72c-15.122,0-27.372,12.249-27.372,27.372
	c0,0.462,0.018,0.924,0.034,1.386c-9.58,3.371-16.457,12.506-16.457,23.249c0,13.601,11.034,24.635,24.634,24.635h62.956
	c12.096,0,21.897-9.803,21.897-21.897C118.755,67.873,111.228,59.027,101.236,57.009z M78.502,72.184L60.469,90.216
	c-1.061,1.06-2.805,1.06-3.866,0L38.572,72.184c-1.728-1.729-0.497-4.671,1.934-4.671h11.188v-19.16
	c0-1.505,1.231-2.737,2.737-2.737h8.212c1.505,0,2.737,1.232,2.737,2.737v19.16h11.188C78.997,67.513,80.229,70.455,78.502,72.184z"
	/>
</svg>
